<svg id="visual" viewBox="0 0 900 600" width="900" height="600" xmlns="http://www.w3.org/2000/svg" xmlns:xlink="http://www.w3.org/1999/xlink" version="1.1"><rect x="0" y="0" width="900" height="600" fill="#001220"/><path d="M0 411L21.5 400.8C43 390.7 86 370.3 128.8 376.3C171.7 382.3 214.3 414.7 257.2 418.5C300 422.3 343 397.7 385.8 386.2C428.7 374.7 471.3 376.3 514.2 373.7C557 371 600 364 642.8 375.7C685.7 387.3 728.3 417.7 771.2 432C814 446.3 857 444.7 878.5 443.8L900 443L900 601L878.5 601C857 601 814 601 771.2 601C728.3 601 685.7 601 642.8 601C600 601 557 601 514.2 601C471.3 601 428.7 601 385.8 601C343 601 300 601 257.2 601C214.3 601 171.7 601 128.8 601C86 601 43 601 21.5 601L0 601Z" fill="#800080"/><path d="M0 460L21.5 455.7C43 451.3 86 442.7 128.8 439.2C171.7 435.7 214.3 437.3 257.2 441.7C300 446 343 453 385.8 451.8C428.7 450.7 471.3 441.3 514.2 437.7C557 434 600 436 642.8 443.5C685.7 451 728.3 464 771.2 457.5C814 451 857 425 878.5 412L900 399L900 601L878.5 601C857 601 814 601 771.2 601C728.3 601 685.7 601 642.8 601C600 601 557 601 514.2 601C471.3 601 428.7 601 385.8 601C343 601 300 601 257.2 601C214.3 601 171.7 601 128.8 601C86 601 43 601 21.5 601L0 601Z" fill="#a6006b"/><path d="M0 497L21.5 490C43 483 86 469 128.8 465C171.7 461 214.3 467 257.2 464.8C300 462.7 343 452.3 385.8 453.5C428.7 454.7 471.3 467.3 514.2 476.8C557 486.3 600 492.7 642.8 493.7C685.7 494.7 728.3 490.3 771.2 483.7C814 477 857 468 878.5 463.5L900 459L900 601L878.5 601C857 601 814 601 771.2 601C728.3 601 685.7 601 642.8 601C600 601 557 601 514.2 601C471.3 601 428.7 601 385.8 601C343 601 300 601 257.2 601C214.3 601 171.7 601 128.8 601C86 601 43 601 21.5 601L0 601Z" fill="#bd1c56"/><path d="M0 504L21.5 503.2C43 502.3 86 500.7 128.8 499.7C171.7 498.7 214.3 498.3 257.2 505.5C300 512.7 343 527.3 385.8 532C428.7 536.7 471.3 531.3 514.2 524.2C557 517 600 508 642.8 508.2C685.7 508.3 728.3 517.7 771.2 517.8C814 518 857 509 878.5 504.5L900 500L900 601L878.5 601C857 601 814 601 771.2 601C728.3 601 685.7 601 642.8 601C600 601 557 601 514.2 601C471.3 601 428.7 601 385.8 601C343 601 300 601 257.2 601C214.3 601 171.7 601 128.8 601C86 601 43 601 21.5 601L0 601Z" fill="#c84143"/><path d="M0 541L21.5 544C43 547 86 553 128.8 554C171.7 555 214.3 551 257.2 552.8C300 554.7 343 562.3 385.8 566.3C428.7 570.3 471.3 570.7 514.2 565.5C557 560.3 600 549.7 642.8 543.8C685.7 538 728.3 537 771.2 536.8C814 536.7 857 537.3 878.5 537.7L900 538L900 601L878.5 601C857 601 814 601 771.2 601C728.3 601 685.7 601 642.8 601C600 601 557 601 514.2 601C471.3 601 428.7 601 385.8 601C343 601 300 601 257.2 601C214.3 601 171.7 601 128.8 601C86 601 43 601 21.5 601L0 601Z" fill="#ca6236"/></svg>