<svg width="300" height="100" version="1.1" viewBox="0 0 300 99.999999" xml:space="preserve" xmlns="http://www.w3.org/2000/svg"> <style type="text/css"> .st0{display:none;} .st1{display:inline;} .st2{display:inline;fill:#FFFFFF;} .st3{display:inline;fill:#EE0000;} .st4{fill:#800080;} .st5{display:inline;fill:#434343;} .st6{fill:#FFFFFF;} .st7{display:inline;fill:#EFEFEF;} .st8{display:inline;fill:#800080;} .st9{display:inline;fill:#4066E0;} </style>    <g transform="translate(-149.94694,-119.91448)">  <path class="st4" d="m247.1 176.4v17.1h-8.2v-34.2h8.2v4.6c2.5-3.4 5.7-5.5 10.5-5.5 8 0 13.7 5.9 13.5 13.9v21.2h-8.4v-20.1c0-3.9-2.7-6.6-6.4-6.6-5.1 0-9.2 4.6-9.2 9.6z"/> <path class="st4" d="m285.9 151.1c0 2.7-2.3 5-5 5s-5-2.3-5-5 2.3-5 5-5 5 2.2 5 5zm-1 42.4h-8.2v-34.2h8.2z"/> <path class="st4" d="m308.7 158.4c1.4 0 4.1 0.5 4.1 0.5v8.2s-1.6-0.2-4.1-0.2c-5.2 0-9.4 4.1-9.4 9.4v17.6h-8.2v-34.2h8.2v3c2.3-3 5.3-4.3 9.4-4.3z"/> <path class="st4" d="m348.1 159.3h8.4l-15.1 34.2h-8.4l-15-34.2h8.4l10.7 24.6z"/> <path class="st4" d="m375.1 194.4c-9.8 0-17.6-8-17.6-18s8-18 17.6-18c4.1 0 7.1 1.4 9.4 3.9v-3h8.2v34.2h-8.2v-3c-2.4 2.5-5.3 3.9-9.4 3.9zm0-27.8c-5.2 0-9.4 4.3-9.4 9.8 0 5.2 4.1 9.8 9.4 9.8 5 0 8.9-4.1 9.4-9.1v-1.4c-0.5-5-4.4-9.1-9.4-9.1z"/> <path class="st4" d="m402.2 167.5h-4.6v-8.2h4.6v-8.2l8.2-0.9v9.1h9.8v8.2h-9.6v14.6c0 2.3 1.8 4.1 4.1 4.1s5.7-0.5 5.7-0.5l0.9 8s-4.1 0.7-6.8 0.7c-6.8 0-12.3-5.5-12.3-12.3z"/> <path class="st4" d="m436.7 151.1c0 2.7-2.3 5-5 5s-5-2.3-5-5 2.3-5 5-5 5 2.2 5 5zm-1 42.4h-8.2v-34.2h8.2z"/>   <path class="st4" d="m185.5 144.2c3 0.2 4.1 3.2 4.8 6.4 0.9 3 1.4 6.6 1.8 10.7 0.2 1.4 0.5 3.2 0.7 5 0.9 5.5 2.3 11.9 4.3 12.3 0.9 0.2 5.5 0 18.5-20.8 0.7-0.9 1.1-1.8 1.8-3-0.5-13.9-7.8-25.6-18.7-28.3-14.4-3.4-29.7 9.1-34.2 28.3-1.6 6.4-1.6 12.5-0.7 18 5.9-5.9 10-13.7 13-19.4 3.4-6 5.3-9.4 8.7-9.2z"/> <path class="st4" d="m197.6 184.4c-0.5 0-0.9 0-1.4-0.2-5.2-1.1-7.3-8-8.7-15.7-0.2-2.1-0.7-4.1-0.9-6.2-0.5-3.9-0.9-7.3-1.6-10 0-0.2-0.2-0.5-0.2-0.7-0.9 1.4-1.8 3.2-2.7 4.8-3 5.5-6.6 12.5-12.1 18.7-1.4 1.6-2.7 3-4.3 4.3 2.5 6.8 7.1 12.3 12.8 15.1l-9.4 8.9c-2.3 2.1-1.4 5.7 1.6 6.6l12.3 3.7c3 0.9 5.5-1.6 4.8-4.6l-3-12.5v-0.2c13.5 1.4 27.1-10.7 31.5-28.5-8 11.5-13.9 16.5-18.7 16.5z"/>  </g>             </svg>
